<svg width="570" height="611" viewBox="0 0 570 611" fill="none" xmlns="http://www.w3.org/2000/svg">
<path d="M82.1 229.53L41.48 206.08C40.24 205.36 39.12 205.3 38.31 205.77C36.46 206.84 34.62 207.92 32.77 208.99C31.97 209.45 31.46 210.44 31.46 211.85L31.37 243.13C31.37 245.96 33.35 249.41 35.82 250.84L50.31 259.2L56.1 274.14L61.64 270.92L64.25 267.25L76.44 274.28C77.76 275.04 78.95 275.06 79.77 274.48C79.72 274.52 79.67 274.56 79.62 274.59L85.16 271.37C85.96 270.9 86.46 269.91 86.46 268.51L86.55 237.23C86.55 234.4 84.57 230.95 82.1 229.53V229.53ZM33.81 208.69C33.75 208.69 33.69 208.7 33.63 208.71C33.69 208.71 33.75 208.69 33.81 208.69ZM33.1 208.83C33.05 208.85 33 208.88 32.95 208.9C33 208.88 33.05 208.85 33.1 208.83ZM33.44 208.73C33.38 208.74 33.33 208.76 33.27 208.78C33.33 208.76 33.38 208.74 33.44 208.73ZM34.02 208.69C34.08 208.69 34.14 208.69 34.21 208.69C34.15 208.69 34.09 208.69 34.02 208.69ZM34.44 208.73C34.5 208.73 34.56 208.74 34.62 208.76C34.56 208.75 34.5 208.74 34.44 208.73ZM34.89 208.83C34.94 208.85 34.99 208.86 35.05 208.87C35 208.85 34.95 208.84 34.89 208.83ZM35.38 209C35.38 209 35.46 209.03 35.5 209.05C35.46 209.03 35.42 209.02 35.38 209ZM79.91 274.39C79.96 274.35 80.01 274.29 80.06 274.24C80.01 274.29 79.96 274.34 79.91 274.39ZM80.17 274.14C80.22 274.08 80.27 274.02 80.31 273.96C80.27 274.02 80.22 274.09 80.17 274.14ZM80.91 272.23C80.92 272.07 80.93 271.9 80.93 271.72C80.93 271.9 80.93 272.07 80.91 272.23ZM80.39 273.85C80.43 273.78 80.47 273.7 80.51 273.62C80.47 273.7 80.43 273.78 80.39 273.85ZM80.58 273.51C80.62 273.42 80.65 273.33 80.69 273.24C80.66 273.33 80.62 273.43 80.58 273.51ZM80.73 273.13C80.77 273.02 80.79 272.91 80.82 272.79C80.79 272.9 80.77 273.02 80.73 273.13ZM80.84 272.7C80.87 272.57 80.89 272.43 80.9 272.29C80.89 272.43 80.87 272.57 80.84 272.7Z" fill="#E79D27"/>
<path d="M76.55 232.76C79.01 234.18 81.01 237.63 81 240.46L80.91 271.75C80.91 274.58 78.9 275.73 76.43 274.3L61.94 265.94L56.09 274.16L50.3 259.22L35.81 250.86C33.35 249.44 31.35 245.99 31.36 243.15L31.45 211.87C31.45 209.04 33.46 207.9 35.93 209.32L76.55 232.77V232.76Z" fill="#F2D280"/>
<path d="M45.79 231.68C44.31 230.83 43.11 231.51 43.1 233.21C43.1 234.91 44.29 236.98 45.77 237.83C47.25 238.68 48.45 238 48.46 236.3C48.46 234.6 47.27 232.53 45.79 231.68Z" fill="white"/>
<path d="M56.51 237.86C55.03 237.01 53.83 237.69 53.82 239.39C53.82 241.09 55.01 243.16 56.49 244.01C57.97 244.86 59.17 244.18 59.18 242.48C59.18 240.78 57.99 238.71 56.51 237.86Z" fill="white"/>
<path d="M67.22 244.05C65.74 243.2 64.54 243.88 64.53 245.58C64.53 247.28 65.72 249.35 67.2 250.2C68.68 251.05 69.88 250.37 69.89 248.67C69.89 246.97 68.7 244.9 67.22 244.04" fill="white"/>
<path d="M55.99 313.83L62.63 310.05C62.84 309.93 63.11 309.97 63.38 310.13C63.65 310.29 63.92 310.56 64.13 310.92C64.54 311.64 64.54 312.41 64.13 312.65L56.74 316.86C56.53 316.98 56.26 316.94 55.99 316.78C55.72 316.62 55.45 316.35 55.24 315.99L47.9 303.27C47.49 302.55 47.48 301.77 47.9 301.54C48.11 301.42 48.38 301.46 48.65 301.62C48.92 301.78 49.19 302.05 49.4 302.41L55.99 313.83M56.08 282.42C42.52 274.59 31.49 280.88 31.45 296.47C31.42 308.69 38.15 323.01 47.6 332.39L55.81 379.19L64.26 342.01C73.73 343.55 80.53 337.05 80.56 324.83C80.6 309.24 69.64 290.25 56.08 282.42" fill="#1A3997"/>
<path d="M63.39 310.13C63.12 309.97 62.85 309.94 62.64 310.05L56 313.83L49.41 302.41C49.2 302.05 48.93 301.78 48.66 301.62C48.39 301.46 48.12 301.43 47.91 301.54C47.49 301.77 47.49 302.55 47.91 303.27L55.25 315.99C55.46 316.35 55.73 316.62 56 316.78C56.27 316.94 56.54 316.97 56.75 316.86L64.14 312.65C64.56 312.41 64.56 311.64 64.14 310.92C63.93 310.56 63.66 310.29 63.39 310.13Z" fill="white"/>
<path d="M126.69 120.61C124.01 122.17 121.33 123.72 118.65 125.28C119.3 124.9 119.91 124.47 120.49 123.97L128.53 119.3C127.95 119.8 127.34 120.23 126.69 120.61Z" fill="#253E59"/>
<path d="M140.37 22.62C127.67 15.29 116.16 14.61 107.85 19.44C105.17 21 102.49 22.55 99.81 24.11C108.12 19.28 119.63 19.96 132.33 27.3C157.57 41.87 177.96 77.2 177.88 106.2C177.84 120.61 172.75 130.75 164.55 135.51L172.59 130.84C180.79 126.07 185.88 115.93 185.92 101.53C186 72.53 165.61 37.2 140.37 22.62V22.62Z" fill="#CE4F41"/>
<path d="M132.33 27.29C157.57 41.86 177.96 77.19 177.88 106.19C177.8 135.19 157.27 146.89 132.03 132.32C128.04 130.02 124.18 127.2 120.49 123.97C115.6 128.16 108.13 128.09 100.18 123.5C98.11 122.31 96.01 120.81 93.92 119C89.25 114.97 85.2 109.91 82.01 104.44C89.76 107.12 96.54 105.23 100.18 99.01C91.68 84.55 86.43 68.17 86.47 53.42C86.55 24.42 107.08 12.71 132.32 27.29H132.33Z" fill="#E06A5B"/>
<path d="M132.91 74.99C130.37 73.52 128.3 74.7 128.29 77.62C128.29 80.54 130.34 84.1 132.88 85.56C135.42 87.03 137.48 85.85 137.49 82.93C137.49 80.01 135.45 76.46 132.91 74.99ZM115.11 64.72C112.57 63.25 110.5 64.43 110.49 67.35C110.49 70.27 112.54 73.83 115.08 75.29C117.62 76.76 119.69 75.58 119.7 72.66C119.7 69.74 117.65 66.18 115.11 64.72ZM150.7 85.27C148.16 83.8 146.1 84.98 146.09 87.9C146.09 90.82 148.13 94.37 150.67 95.84C153.21 97.31 155.28 96.13 155.29 93.21C155.29 90.29 153.25 86.73 150.7 85.27Z" fill="white"/>
<path d="M379.92 171.74L218.82 78.72L218.81 81.33L379.91 174.34L379.92 171.74Z" fill="white"/>
<path d="M379.99 147.74L218.89 54.72L218.88 57.33L379.98 150.35L379.99 147.74Z" fill="white"/>
<path d="M270.08 132.35L218.75 102.72V105.33L270.07 134.96L270.08 132.35Z" fill="white"/>
<path d="M474.52 206.47L474.56 192.03L503.73 208.87L503.69 223.31L474.52 206.47ZM505.16 208.07L473.15 189.59L473.1 207.29L505.11 225.77L505.16 208.07Z" fill="white"/>
<path d="M474.44 233.59L474.48 219.15L503.65 235.99L503.61 250.43L474.44 233.59ZM505.08 235.18L473.07 216.7L473.02 234.4L505.03 252.88L505.08 235.18Z" fill="white"/>
<path d="M474.36 260.72L474.4 246.27L503.57 263.11L503.53 277.56L474.36 260.72ZM505 262.31L472.99 243.83L472.94 261.53L504.95 280.01L505 262.31" fill="white"/>
<path d="M25.8 168.14C22.08 165.99 19.07 160.77 19.09 156.5C19.11 152.23 22.13 150.5 25.85 152.65L74.9 180.97C78.62 183.12 81.63 188.34 81.61 192.6C81.59 196.86 78.57 198.6 74.85 196.46L25.8 168.14M74.9 179.35L25.85 151.03C21.36 148.43 17.68 150.52 17.66 155.69C17.64 160.86 21.3 167.18 25.79 169.78L74.84 198.1C79.34 200.7 83.01 198.61 83.03 193.43C83.05 188.25 79.4 181.95 74.9 179.35Z" fill="white"/>
<path d="M25.8 133.04C22.08 130.89 19.07 125.68 19.09 121.41C19.11 117.14 22.13 115.41 25.85 117.56L74.9 145.88C78.62 148.03 81.63 153.24 81.61 157.51C81.59 161.78 78.57 163.51 74.85 161.36L25.8 133.04M74.9 144.25L25.85 115.93C21.36 113.33 17.68 115.42 17.66 120.6C17.64 125.78 21.3 132.09 25.79 134.68L74.84 163C79.34 165.6 83.01 163.51 83.03 158.34C83.05 153.17 79.4 146.85 74.9 144.25Z" fill="white"/>
<path d="M562.99 380.33L532.78 362.89L532.77 365.33L562.99 382.78V380.33Z" fill="white"/>
<path d="M563.03 365.89L532.82 348.45L532.81 350.9L563.03 368.35V365.89Z" fill="white"/>
<path d="M539.64 381.3L532.74 377.32L532.73 379.76L539.63 383.75L539.64 381.3Z" fill="white"/>
<path d="M432.67 170.88L455.12 183.84L454.99 232.24L421.21 212.73L421.31 177.36L432.64 183.9L432.67 170.88Z" fill="white"/>
<path d="M432.67 170.88L432.64 183.9L421.31 177.36L432.67 170.88Z" fill="#1A3997"/>
<path d="M227.16 15.67L219.15 11.04L219.07 40.48L227.08 45.11L227.16 15.67Z" fill="white"/>
<path d="M241.53 35.94L233.53 31.32L233.48 48.8L241.48 53.42L241.53 35.94Z" fill="white"/>
<path d="M256.01 21.26L248.01 16.64L247.89 57.12L255.9 61.75L256.01 21.26Z" fill="white"/>
<path d="M270.4 40.63L262.39 36L262.3 65.44L270.31 70.07L270.4 40.63Z" fill="white"/>
</svg>
