<svg width="625" height="611" viewBox="0 0 625 611" fill="none" xmlns="http://www.w3.org/2000/svg">
<g clip-path="url(#clip0_2_672)">
<g style="mix-blend-mode:color-burn">
<path d="M266.16 405.29L151.23 338.94C148.79 337.53 144.86 337.53 142.44 338.94L53.24 390.77C50.82 392.18 50.83 394.46 53.27 395.86L168.2 462.21C170.63 463.62 174.58 463.62 176.99 462.21L266.19 410.38C268.61 408.97 268.6 406.69 266.16 405.29" fill="#A2A2A2"/>
</g>
<path d="M75.14 272.07L75.1 319.88L68.68 323.63L68.71 275.82L75.14 272.07Z" fill="#896F51"/>
<path d="M139.98 309.32L139.94 357.13L75.1 319.88L75.14 272.07L139.98 309.32Z" fill="#614F3A"/>
<path d="M158.67 298.41L158.63 346.21L139.94 357.13L139.98 309.32L158.67 298.41Z" fill="#B28F67"/>
<path d="M139.98 309.32L139.94 357.13L133.52 360.88L133.55 313.07L139.98 309.32Z" fill="#C2A278"/>
<path d="M139.98 309.32L133.55 313.07L68.71 275.82L75.14 272.07L139.98 309.32Z" fill="#ECDCCC"/>
<path d="M133.55 313.07L133.52 360.88L68.68 323.63L68.71 275.82L133.55 313.07Z" fill="#6F6252"/>
<path d="M114.85 323.99L114.82 371.8L49.98 334.55L50.02 286.74L114.85 323.99Z" fill="#C39C70"/>
<path d="M133.55 313.07L133.52 360.88L114.82 371.8L114.85 323.99L133.55 313.07Z" fill="#B28F67"/>
<path d="M158.67 298.41L139.98 309.32L75.14 272.07L68.71 275.82L133.55 313.07L114.85 323.99L50.02 286.74L93.83 261.15L158.67 298.41Z" fill="#E3BE9D"/>
<path d="M149.47 341.77L145.64 343.99L145.67 349.07L149.49 346.84L149.47 341.77Z" fill="#9E7856"/>
<path d="M156.23 337.85L152.4 340.07L152.43 345.14L156.25 342.92L156.23 337.85Z" fill="#9E7856"/>
<path d="M25.15 303.72L25.12 351.52L18.7 355.28L18.73 307.47L25.15 303.72Z" fill="#896F51"/>
<path d="M89.99 340.97L89.96 388.77L25.12 351.52L25.15 303.72L89.99 340.97Z" fill="#614F3A"/>
<path d="M108.69 330.05L108.66 377.86L89.96 388.77L89.99 340.97L108.69 330.05Z" fill="#B28F67"/>
<path d="M89.99 340.97L89.96 388.77L83.54 392.53L83.57 344.72L89.99 340.97Z" fill="#C2A278"/>
<path d="M89.99 340.97L83.57 344.72L18.73 307.47L25.15 303.72L89.99 340.97Z" fill="#ECDCCC"/>
<path d="M83.57 344.72L83.54 392.53L18.7 355.28L18.73 307.47L83.57 344.72Z" fill="#6F6252"/>
<path d="M64.87 355.64L64.84 403.44L0 366.19L0.03 318.39L64.87 355.64Z" fill="#C39C70"/>
<path d="M83.57 344.72L83.54 392.53L64.84 403.44L64.87 355.64L83.57 344.72Z" fill="#B28F67"/>
<path d="M108.69 330.05L89.99 340.97L25.15 303.72L18.73 307.47L83.57 344.72L64.87 355.64L0.0299988 318.39L43.85 292.8L108.69 330.05Z" fill="#E3BE9D"/>
<path d="M99.48 373.42L95.66 375.64L95.69 380.71L99.51 378.49L99.48 373.42Z" fill="#9E7856"/>
<path d="M106.24 369.49L102.42 371.71L102.45 376.78L106.27 374.57L106.24 369.49Z" fill="#9E7856"/>
<g style="mix-blend-mode:color-burn">
<path d="M173.43 523.41L96.67 479.09L59.42 500.74L136.18 542.89L173.43 521.24" fill="#848C8F"/>
</g>
<path d="M189.14 498.32L120.46 458.41L137.6 448.51L206.28 488.42L189.14 498.32Z" fill="#D9B9A1"/>
<path d="M206.19 456.19L137.51 416.28L168 398.68L236.67 438.59L206.19 456.19Z" fill="#DECAA7"/>
<path d="M206.28 488.42L137.6 448.51L137.51 416.28L206.19 456.19L206.28 488.42Z" fill="#867465"/>
<path d="M189.04 466.09L120.37 426.18L137.51 416.28L206.19 456.19L189.04 466.09Z" fill="#EDE6DC"/>
<path d="M206.19 456.19L206.28 488.42L189.14 498.32L189.04 466.09L206.19 456.19Z" fill="#C3BBB6"/>
<path d="M189.14 498.32L120.46 458.41L120.37 426.18L189.04 466.09L189.14 498.32Z" fill="#86817F"/>
<path d="M158.77 556.61L90.09 516.7L89.88 443.78L158.56 483.69L158.77 556.61Z" fill="#D6B892"/>
<path d="M236.67 438.59L236.88 511.51L158.77 556.61L158.56 483.69L189.04 466.09L189.14 498.32L206.28 488.42L206.19 456.19L236.67 438.59Z" fill="#C7A480"/>
<path d="M158.56 483.69L89.88 443.78L120.37 426.18L189.04 466.09L158.56 483.69Z" fill="#DECAA7"/>
<path d="M294.49 250.7L169.82 322.68C168.2 323.62 166.89 325.88 166.89 327.75L166.91 334.51C166.91 336.38 168.23 337.13 169.86 336.2L294.53 264.22C296.15 263.28 297.46 261.01 297.46 259.14L297.44 252.38C297.44 250.51 296.12 249.76 294.49 250.7Z" fill="#508BB1"/>
<path d="M391.26 358L391.24 363L373.96 373.05L373.97 368.05L391.26 358Z" fill="#1A3997"/>
<path d="M419.19 341.77L391.26 358V363L419.18 346.77C421.33 345.52 422.4 343.88 422.4 342.21V337.21C422.41 338.88 421.34 340.52 419.19 341.77V341.77ZM327.05 400.31L373.96 373.05V368.05L327.07 395.31L327.05 400.31V400.31Z" fill="#E8A126"/>
<path d="M327.06 395.31L327.04 400.31C322.6 402.89 315.24 402.81 310.59 400.13V395.13C315.25 397.81 322.61 397.9 327.05 395.32" fill="#EFC263"/>
<path d="M232.78 286.53L373.97 368.05L391.26 358L250.07 276.48L232.78 286.53Z" fill="#1A3997"/>
<path d="M173.53 320.96C173.62 321.02 173.7 321.08 173.8 321.13L310.61 400.12V395.12L177.84 318.46L173.53 320.96V320.96Z" fill="#E8A126"/>
<path d="M177.84 318.46L310.62 395.12C315.26 397.8 322.63 397.89 327.07 395.31L373.97 368.05L232.78 286.53L177.84 318.46V318.46Z" fill="#F2D280"/>
<path d="M418.82 332.24L286.04 255.58L250.07 276.48L391.26 358L419.19 341.77C423.63 339.19 423.46 334.92 418.82 332.24Z" fill="#F2D280"/>
<g style="mix-blend-mode:color-burn">
<path d="M286.04 255.58L250.07 276.48L232.78 286.53L177.84 318.46L173.53 320.96C173.62 321.02 173.7 321.08 173.8 321.13L184.88 327.53L297.4 262.14L286.04 255.58V255.58Z" fill="#BABABA"/>
</g>
<g style="mix-blend-mode:color-burn">
<path d="M540.21 547.53L459.99 501.21L421.05 523.84L501.27 567.88L540.21 545.26" fill="#848C8F"/>
</g>
<path d="M560.54 373.63C552.58 369.04 546.1 372.73 546.07 381.88L546.01 404.8C546.01 405.84 546.74 407.11 547.64 407.63C548.55 408.15 549.28 407.73 549.28 406.69L549.35 383.77C549.35 380.23 550.61 377.76 552.64 376.6C554.67 375.45 557.45 375.62 560.53 377.4C563.62 379.18 566.39 382.21 568.4 385.7C570.42 389.19 571.65 393.11 571.64 396.65L571.58 419.57C571.58 420.61 572.3 421.87 573.21 422.4C574.11 422.92 574.85 422.5 574.85 421.46L574.92 398.54C574.94 389.39 568.51 378.25 560.55 373.64" fill="#5FA2E6"/>
<path d="M575.12 434.35L602.61 418.38L602.36 540.44L574.87 556.41L575.12 434.35Z" fill="#1A3997"/>
<path d="M498.35 390.03L525.51 405.71V374.24L498.35 390.03Z" fill="#CEE2ED"/>
<path d="M602.61 418.38L525.84 374.05L525.51 374.24V405.71L575.12 434.35L602.61 418.38Z" fill="white"/>
<path d="M575.12 434.35L574.87 556.41L498.09 512.09L498.35 390.03L575.12 434.35Z" fill="#5FA2E6"/>
<path d="M541.53 386.56C533.57 381.97 527.09 385.66 527.06 394.81L527 417.73C527 418.76 527.73 420.04 528.63 420.56C529.54 421.08 530.27 420.66 530.27 419.62L530.34 396.7C530.34 393.16 531.6 390.69 533.63 389.53C535.66 388.38 538.44 388.55 541.52 390.33C544.61 392.11 547.38 395.14 549.39 398.63C551.4 402.13 552.64 406.04 552.63 409.58L552.56 432.5C552.56 433.54 553.29 434.8 554.19 435.33C555.09 435.85 555.82 435.43 555.83 434.39L555.89 411.47C555.92 402.32 549.48 391.18 541.52 386.57" fill="#5FA2E6"/>
<path d="M513.24 463.32C505.27 458.73 498.8 462.42 498.77 471.57L498.71 494.49C498.71 495.52 499.44 496.8 500.34 497.32C501.25 497.84 501.98 497.42 501.98 496.39L502.05 473.47C502.05 469.93 503.31 467.46 505.34 466.3C507.37 465.15 510.15 465.32 513.23 467.1C516.32 468.88 519.09 471.91 521.1 475.4C523.12 478.9 524.35 482.81 524.35 486.35L524.28 509.27C524.28 510.31 525.01 511.57 525.91 512.1C526.81 512.62 527.55 512.2 527.55 511.16L527.62 488.24C527.64 479.09 521.21 467.95 513.24 463.34" fill="#E06A5B"/>
<path d="M527.82 524.04L555.31 508.07L555.05 567.76L527.56 583.73L527.82 524.04Z" fill="#DC422C"/>
<path d="M451.05 479.71L478.21 495.4V463.93L451.05 479.71Z" fill="#E5CDC9"/>
<path d="M555.31 508.07L478.53 463.74L478.21 463.93V495.4L527.82 524.04L555.31 508.07Z" fill="white"/>
<path d="M527.82 524.04L527.56 583.73L450.79 539.4L451.05 479.71L527.82 524.04Z" fill="#E06A5B"/>
<path d="M494.23 476.25C486.27 471.66 479.79 475.35 479.76 484.5L479.69 507.42C479.69 508.46 480.42 509.73 481.32 510.25C482.23 510.77 482.96 510.35 482.96 509.31L483.02 486.39C483.03 482.85 484.28 480.38 486.31 479.22C488.34 478.07 491.12 478.24 494.2 480.02C497.29 481.8 500.06 484.83 502.07 488.32C504.08 491.82 505.32 495.73 505.32 499.27L505.25 522.19C505.25 523.23 505.98 524.5 506.88 525.02C507.78 525.54 508.51 525.12 508.52 524.08L508.59 501.16C508.61 492.01 502.18 480.87 494.21 476.26" fill="#E06A5B"/>
<path d="M508.98 183.05L455.81 213.75V216.42L508.99 185.72L508.98 183.05Z" fill="white"/>
<path d="M509.05 206.75L406.16 266.15L406.17 268.8L509.05 209.4V206.75Z" fill="white"/>
<path d="M509.11 230.44L437.44 271.82L437.45 274.47L509.12 233.09L509.11 230.44Z" fill="white"/>
<path d="M467.56 278.15L451.38 287.5L451.39 290.15L467.57 280.81L467.56 278.15Z" fill="white"/>
<path d="M509.18 254.12L481.44 270.14V272.8L509.19 256.78L509.18 254.12Z" fill="white"/>
<g style="mix-blend-mode:multiply" opacity="0.2">
<path d="M372.7 485.76L326.39 459.02C323.3 457.24 319.18 456.4 315.14 456.51C311.55 456.6 308 457.44 305.26 459.02L272.94 477.8C267.12 481.18 267.15 486.66 273 490.04L319.31 516.78C325.17 520.16 334.63 520.16 340.45 516.78L372.77 498C375.5 496.41 376.93 494.35 377.08 492.27C377.25 489.93 375.79 487.55 372.7 485.76Z" fill="#4B4E50"/>
</g>
<path d="M376 454.56L329.69 427.82C326.6 426.03 322.48 425.2 318.44 425.31C314.85 425.41 311.3 426.24 308.56 427.82L276.24 446.6C270.42 449.98 270.45 455.46 276.3 458.84L322.61 485.58C328.47 488.96 337.93 488.96 343.75 485.58L376.07 466.8C378.8 465.21 380.22 463.15 380.38 461.07C380.55 458.73 379.1 456.35 376 454.56V454.56Z" fill="#D8E9ED"/>
<path d="M376 454.56L329.69 427.82C326.6 426.03 322.48 425.2 318.44 425.31L317.42 461.79L380.39 461.08C380.56 458.74 379.11 456.36 376.01 454.57" fill="white"/>
<path d="M553.43 337.08C550.88 338.55 548.81 337.37 548.8 334.44L548.69 294.4C548.69 291.47 550.74 287.9 553.29 286.43L604.03 257.13C606.58 255.66 608.65 256.84 608.66 259.77L608.77 299.81C608.77 302.74 606.72 306.31 604.17 307.78L583.36 319.8L569.31 343.68L569.27 327.94L553.44 337.08M604.03 254.68L553.29 283.98C549.57 286.13 546.55 291.35 546.56 295.63L546.67 335.67C546.68 339.95 549.72 341.68 553.44 339.53L567.14 331.62L567.19 350.7L584.23 321.76L604.18 310.24C607.9 308.09 610.92 302.87 610.91 298.59L610.8 258.55C610.79 254.27 607.75 252.54 604.03 254.69" fill="white"/>
<path d="M578.69 282.89L574.82 294.21L566.1 300.71L572.43 304.13L570.97 314.96L578.75 305.75L586.56 305.96L585.04 296.85L591.33 286.14L582.61 289.71L578.69 282.89Z" fill="#E06A5B"/>
<path d="M330.97 585.24L319.76 591.76L299.39 579.99L299.29 592.16L278.28 592.26L298.66 604.02L287.45 610.54L309.11 610.44L330.77 610.34L330.87 597.79L330.97 585.24Z" fill="#5FA2E6"/>
<path d="M299.49 567.07L288.29 573.59L267.91 561.82L267.81 573.99L246.8 574.09L267.18 585.85L255.97 592.36L277.63 592.27L278.28 592.26L299.29 592.16L299.39 579.99V579.62L299.49 567.07Z" fill="#F2D280"/>
<path d="M268.02 548.9L256.81 555.41L223.23 536.02L202.12 548.29L235.7 567.68L224.49 574.19L246.15 574.09H246.8L267.81 573.99L267.91 561.82L267.92 561.45L268.02 548.9Z" fill="#E06A5B"/>
<path d="M459.54 93.63L499.9 70.32L499.92 76.47L461.09 98.89V99.29L499.92 76.87L499.94 83.51L461.11 105.92V106.33L499.94 83.91L499.96 90.54L461.13 112.96V113.36L499.96 90.94L499.98 97.57L461.15 119.99V120.39L499.98 97.97L500 104.61L461.17 127.02V127.43L500 105.01L500.02 111.64L461.19 134.06V134.46L500.02 112.04L500.04 118.67L461.21 141.09V141.5L500.04 119.07L500.06 125.71L461.23 148.12V148.53L500.06 126.11L500.08 132.74L461.25 155.16V155.56L500.08 133.14L500.1 139.78L461.27 162.2V162.59L500.1 140.18L500.12 146.81L461.29 169.23V169.63L500.12 147.21L500.14 152.92L500.91 152.47L500.89 146.77L511.98 140.36V139.96L500.89 146.36L500.87 139.73L511.96 133.33V132.93L500.87 139.34L500.85 132.7L511.94 126.29V125.89L500.85 132.3L500.83 125.67L511.92 119.26V118.86L500.83 125.26L500.81 118.63L511.9 112.23V111.83L500.81 118.23L500.79 111.6L511.88 105.19V104.79L500.79 111.2L500.77 104.56L511.86 98.16V97.76L500.77 104.16L500.75 97.53L511.84 91.13V90.72L500.75 97.13L500.73 90.5L511.82 84.09V83.69L500.73 90.1L500.71 83.46L511.8 77.06V76.66L500.71 83.06L500.69 76.43L511.78 70.02V69.62L500.69 76.03L500.67 69.88L513.3 62.59L513.53 145.24L459.78 176.27L459.54 93.63Z" fill="#F6F5F6"/>
<path d="M500.69 76.03V76.43L511.79 70.03V69.63L500.69 76.04M461.09 98.9V99.3L499.93 76.88V76.48L461.09 98.9" fill="#96C2C6"/>
<path d="M500.71 83.06V83.46L511.8 77.06V76.66L500.71 83.06ZM461.11 105.92V106.32L499.94 83.9V83.5L461.11 105.92Z" fill="#96C2C6"/>
<path d="M500.73 90.1V90.5L511.82 84.1V83.7L500.73 90.1ZM461.13 112.96V113.36L499.96 90.94V90.54L461.13 112.96Z" fill="#96C2C6"/>
<path d="M500.75 97.13V97.53L511.84 91.12V90.72L500.75 97.13ZM461.15 119.99V120.39L499.98 97.97V97.57L461.15 119.99Z" fill="#96C2C6"/>
<path d="M500.77 104.16V104.56L511.86 98.16V97.76L500.77 104.16ZM461.17 127.02V127.42L500 105V104.6L461.17 127.02Z" fill="#96C2C6"/>
<path d="M500.79 111.2V111.6L511.88 105.19V104.79L500.79 111.19M461.19 134.05V134.45L500.02 112.03V111.63L461.19 134.05Z" fill="#96C2C6"/>
<path d="M500.81 118.23V118.63L511.9 112.22V111.82L500.81 118.22M461.21 141.08V141.48L500.04 119.06V118.66L461.21 141.08Z" fill="#96C2C6"/>
<path d="M500.83 125.26V125.66L511.93 119.26V118.86L500.83 125.26ZM461.23 148.12V148.52L500.06 126.1V125.7L461.23 148.12Z" fill="#96C2C6"/>
<path d="M500.85 132.3V132.7L511.95 126.3V125.9L500.85 132.3ZM461.25 155.16V155.56L500.08 133.14V132.74L461.25 155.16Z" fill="#96C2C6"/>
<path d="M500.87 139.34V139.74L511.96 133.34V132.94L500.87 139.34ZM461.27 162.2V162.6L500.1 140.18V139.78L461.27 162.2Z" fill="#96C2C6"/>
<path d="M500.89 146.36V146.76L511.98 140.36V139.96L500.89 146.36ZM461.29 169.22V169.62L500.12 147.2V146.8L461.29 169.22Z" fill="#96C2C6"/>
<path d="M499.9 70.32L500.67 69.88L500.69 76.03V76.43L500.71 83.06V83.46L500.73 90.1V90.5L500.75 97.13V97.53L500.77 104.16V104.56L500.79 111.2V111.6L500.81 118.23V118.63L500.83 125.26V125.67L500.85 132.3V132.7L500.87 139.34V139.73L500.89 146.36V146.77L500.91 152.47L500.14 152.92L500.12 147.21V146.81L500.1 140.18V139.78L500.08 133.14V132.74L500.06 126.11V125.71L500.04 119.07V118.67L500.02 112.04V111.64L500 105.01V104.61L499.98 97.97V97.57L499.96 90.94V90.54L499.94 83.91V83.51L499.92 76.87V76.47L499.9 70.32Z" fill="#D0686A"/>
<path d="M459.52 85.91L513.27 54.87L513.3 62.59L500.67 69.88L499.9 70.32L459.54 93.63L459.52 85.91Z" fill="#5FA2E6"/>
<path d="M443.8 214.52C441.93 215.6 440.41 218.22 440.42 220.38C440.42 222.54 441.95 223.4 443.83 222.32C445.71 221.23 447.23 218.62 447.22 216.46C447.22 214.3 445.69 213.44 443.81 214.52" fill="#E06A5B"/>
<path d="M446.02 446.42L440.63 443.29L440.59 429.93L445.98 433.06L446.02 446.42Z" fill="#1A3997"/>
<path d="M474.44 392.18C474.42 386.8 470.62 384.63 465.94 387.33L441.97 401.17C437.29 403.87 433.51 410.42 433.53 415.8L433.57 430.47C433.58 435.84 437.39 438.01 442.07 435.31L445.98 433.05L446.02 446.41L456.75 426.83L466.04 421.46C470.72 418.76 474.5 412.21 474.49 406.84L474.45 392.17L474.44 392.18Z" fill="#5FA2E6"/>
<path d="M466.57 383.61C465.03 382.71 462.9 382.84 460.55 384.2L436.58 398.04C431.9 400.74 428.12 407.29 428.14 412.67L428.18 427.34C428.18 430.01 429.13 431.89 430.65 432.77L436.04 435.9C434.52 435.01 433.58 433.14 433.57 430.47L433.53 415.8C433.52 410.42 437.29 403.87 441.97 401.17L465.94 387.33C468.29 385.97 470.43 385.85 471.97 386.74L466.58 383.61H466.57Z" fill="#1A3997"/>
<path d="M463.83 410.49C464.51 410.1 465.06 410.41 465.07 411.19C465.07 411.97 464.52 412.92 463.84 413.32L445.13 424.12C444.45 424.51 443.9 424.2 443.89 423.42C443.89 422.63 444.44 421.69 445.12 421.3L463.83 410.5V410.49Z" fill="#F8E7C9"/>
<path d="M463.81 404.44C464.49 404.05 465.05 404.36 465.05 405.14C465.05 405.92 464.5 406.87 463.82 407.27L445.11 418.07C444.43 418.46 443.88 418.14 443.88 417.36C443.88 416.58 444.43 415.63 445.11 415.24L463.81 404.44Z" fill="#F8E7C9"/>
<path d="M463.79 398.38C464.47 397.99 465.02 398.3 465.03 399.08C465.03 399.86 464.48 400.81 463.8 401.2L445.09 412C444.41 412.39 443.86 412.08 443.86 411.3C443.86 410.52 444.4 409.57 445.08 409.17L463.79 398.37V398.38Z" fill="#F8E7C9"/>
<path d="M423.59 211.47L420.9 213.02C418.81 214.23 417.12 217.16 417.12 219.57V224.79C417.15 227.19 418.85 228.16 420.94 226.96L428.44 222.63L420.94 226.96C420.35 227.3 419.88 227.02 419.88 226.35C419.88 225.68 420.35 224.85 420.94 224.51C420.03 225.04 419.28 224.61 419.27 223.56V218.34C419.25 217.28 419.99 216 420.91 215.47L424.18 213.58C423.83 213.58 423.59 213.3 423.59 212.83V211.48M428.4 208.7L425.72 210.25V211.6C425.72 212.08 425.49 212.63 425.14 213.03L428.41 211.14C429.33 210.61 430.07 211.04 430.08 212.09C430.08 212.76 430.56 213.04 431.14 212.7C431.72 212.36 432.2 211.54 432.2 210.87C432.2 208.46 430.49 207.49 428.4 208.7" fill="#DC4242"/>
<path d="M418.23 234.45C417.64 234.79 417.17 235.61 417.17 236.28C417.18 238.68 418.88 239.66 420.97 238.45L423.66 236.9V235.55C423.66 235.07 423.89 234.52 424.24 234.12L420.97 236.01C420.05 236.53 419.31 236.11 419.3 235.05C419.3 234.38 418.82 234.11 418.23 234.45M428.43 220.18L420.93 224.51C420.34 224.85 419.87 225.67 419.87 226.35C419.87 227.03 420.35 227.3 420.93 226.96L428.43 222.63C429.35 222.1 430.09 222.53 430.1 223.58V228.8C430.11 229.86 429.37 231.14 428.45 231.68L425.18 233.57C425.53 233.57 425.77 233.85 425.77 234.32V235.67L428.46 234.12C430.55 232.91 432.25 229.98 432.24 227.57V222.35C432.22 219.94 430.51 218.98 428.42 220.18" fill="#DC4242"/>
<path d="M424.64 204.97C424.05 205.31 423.58 206.14 423.58 206.81V211.47L423.6 212.82C423.6 213.3 423.84 213.57 424.19 213.57C424.33 213.57 424.5 213.52 424.67 213.42C424.84 213.32 425.01 213.18 425.15 213.01C425.5 212.61 425.73 212.06 425.73 211.58V210.23L425.71 205.57C425.71 204.9 425.23 204.62 424.64 204.96" fill="#DC4242"/>
<path d="M424.72 233.71C424.55 233.81 424.38 233.95 424.24 234.12C423.89 234.52 423.66 235.07 423.66 235.55V236.9L423.68 241.56C423.68 242.23 424.16 242.5 424.75 242.16C425.34 241.82 425.81 241 425.81 240.33V235.67L425.79 234.32C425.79 233.84 425.55 233.57 425.2 233.57C425.06 233.57 424.89 233.62 424.72 233.72" fill="#DC4242"/>
</g>
<defs>
<clipPath id="clip0_2_672">
<rect width="624.03" height="610.54" fill="white"/>
</clipPath>
</defs>
</svg>
