<svg width="570" height="611" viewBox="0 0 570 611" fill="none" xmlns="http://www.w3.org/2000/svg">
<g clip-path="url(#clip0_1_2)">
<g style="mix-blend-mode:color-burn" opacity="0.45">
<path d="M413.35 509.94L281.73 421.26L185.94 479.55L254.01 518.25L421.67 515.48" fill="#848C8F"/>
</g>
<path d="M300.73 410.4L232.05 370.47L232.22 434.27C232.22 435.66 231.25 437.34 230.05 438.04L177.6 468.3L246.28 508.23L298.73 477.97C299.93 477.27 300.9 475.59 300.9 474.2L300.73 410.4Z" fill="#F1F3FF"/>
<path d="M300.73 410.4L232.05 370.47L232.19 424.75L300.87 464.66L300.73 410.4Z" fill="#CBD3F9"/>
<path d="M246.32 517.4L177.63 477.48L177.6 468.32L246.29 508.23L246.32 517.4Z" fill="#E3E4F9"/>
<path d="M300.72 410.39L232.03 370.48L240.01 365.87L308.7 405.79L300.72 410.39Z" fill="#7195FF"/>
<path d="M308.71 405.8L308.88 469.6C308.89 476.06 304.36 483.9 298.75 487.13L246.3 517.4L246.27 508.23L298.72 477.97C299.92 477.27 300.89 475.59 300.89 474.2L300.72 410.4L308.7 405.8H308.71Z" fill="#E3E4F9"/>
<path d="M413.19 262.34C414.99 263.38 416.46 265.92 416.45 267.99L415.92 454.74C415.92 456.82 414.44 457.66 412.64 456.62L129.53 293.17C127.73 292.13 126.26 289.59 126.27 287.51L126.8 100.76C126.8 98.69 128.28 97.85 130.09 98.89L413.19 262.34V262.34Z" fill="#D5EBFF"/>
<path d="M413.22 251.04C420.46 255.22 426.31 265.35 426.29 273.67L425.63 507.11C425.61 515.43 419.72 518.78 412.48 514.6L129.37 351.15C122.13 346.97 116.28 336.84 116.31 328.52L116.97 95.08C116.99 86.76 122.88 83.41 130.12 87.59L413.22 251.04ZM415.93 454.74L416.46 267.99C416.46 265.92 415 263.38 413.2 262.34L130.09 98.89C128.28 97.85 126.81 98.69 126.8 100.76L126.27 287.51C126.27 289.59 127.73 292.13 129.53 293.17L412.64 456.62C414.44 457.66 415.92 456.83 415.92 454.74" fill="white"/>
<path d="M422.98 245.36L139.88 81.92C136.24 79.82 132.94 79.62 130.56 81.01C127.3 82.9 124.05 84.79 120.79 86.69C123.17 85.31 126.47 85.5 130.12 87.6L413.22 251.04C420.46 255.22 426.31 265.35 426.29 273.67L425.63 507.11C425.62 511.24 424.16 514.15 421.81 515.52C425.06 513.63 428.32 511.74 431.58 509.84C433.93 508.47 435.39 505.57 435.4 501.44L436.06 268C436.08 259.68 430.23 249.55 422.99 245.37L422.98 245.36Z" fill="#CBD3F9"/>
<path d="M227.95 288.93L150.51 244.22L150.49 249.03L227.93 293.74L227.95 288.93Z" fill="#7195FF"/>
<path d="M227.91 302.11L150.47 257.41L150.46 262.21L227.89 306.92L227.91 302.11Z" fill="#7195FF"/>
<path d="M185.8 291.01L150.43 270.59L150.42 275.4L185.79 295.82L185.8 291.01Z" fill="#7195FF"/>
<g style="mix-blend-mode:color-burn">
<path d="M352.4 547.17L337.93 538.82L300.2 560.74L314.68 569.1L352.4 547.17Z" fill="#B5B5B5"/>
<path d="M358.72 570.95L344.24 562.59L323.89 574.41L338.37 582.78L358.72 570.95Z" fill="#B5B5B5"/>
<path d="M432.14 555.73L417.66 547.37L347.58 588.09L362.06 596.45L432.14 555.73Z" fill="#B5B5B5"/>
<path d="M422.69 588.66L408.22 580.31L371.28 601.77L385.75 610.13L422.69 588.66Z" fill="#B5B5B5"/>
</g>
<path d="M315.77 526.96L327.22 520.31L327.1 563.45L315.65 570.1L315.77 526.96Z" fill="#1A3997"/>
<path d="M301.46 518.7L312.91 512.04L327.22 520.31L315.77 526.96L301.46 518.7Z" fill="#577EEF"/>
<path d="M315.77 526.96L315.65 570.1L301.33 561.84L301.46 518.7L315.77 526.96Z" fill="#7195FF"/>
<path d="M339.14 560.35L350.59 553.7L350.53 576.98L339.07 583.63L339.14 560.35Z" fill="#9D221F"/>
<path d="M324.82 552.09L336.27 545.43L350.59 553.7L339.14 560.35L324.82 552.09Z" fill="#CE4F41"/>
<path d="M339.14 560.35L339.07 583.63L324.76 575.36L324.82 552.09L339.14 560.35Z" fill="#DA625B"/>
<path d="M362.72 517.01L374.18 510.35L373.95 590.49L362.5 597.15L362.72 517.01Z" fill="#1A3997"/>
<path d="M348.41 508.74L359.86 502.09L374.18 510.35L362.72 517.01L348.41 508.74Z" fill="#577EEF"/>
<path d="M362.72 517.01L362.5 597.15L348.18 588.89L348.41 508.74L362.72 517.01Z" fill="#7195FF"/>
<path d="M386.04 568.43L397.5 561.78L397.38 604.02L385.93 610.68L386.04 568.43Z" fill="#9D221F"/>
<path d="M371.73 560.17L383.19 553.51L397.5 561.78L386.04 568.43L371.73 560.17Z" fill="#CE4F41"/>
<path d="M386.04 568.43L385.93 610.68L371.61 602.41L371.73 560.17L386.04 568.43Z" fill="#DA625B"/>
<g style="mix-blend-mode:color-burn" opacity="0.25">
<path d="M397.08 342.64C397.17 312.35 375.86 275.45 349.5 260.23L338.69 266.51V266.38C325.42 258.72 313.4 258.01 304.72 263.05L288.93 272.23C288.93 272.23 288.99 272.2 289.02 272.18C280.4 277.14 275.05 287.75 275 302.85C274.91 333.14 296.22 370.05 322.58 385.27C336.23 393.15 348.56 393.66 357.29 388.12C357.04 388.28 356.8 388.45 356.55 388.59C361.81 385.53 367.08 382.47 372.34 379.41C380.89 374.44 386.19 363.89 386.26 348.91L397.07 342.63L397.08 342.64ZM318 273.02C317.56 272.82 317.14 272.65 316.71 272.46C317.14 272.64 317.57 272.82 318 273.02ZM320.43 274.21C320.06 274.02 319.69 273.85 319.32 273.66C319.69 273.84 320.06 274.01 320.43 274.21ZM304.25 269.14C303.86 269.1 303.48 269.09 303.1 269.07C303.48 269.09 303.86 269.1 304.25 269.14ZM302.13 269.02C301.76 269.02 301.39 269.02 301.03 269.03C301.4 269.03 301.76 269.01 302.13 269.02ZM290.68 271.32C290.39 271.46 290.1 271.61 289.82 271.77C290.11 271.62 290.39 271.46 290.68 271.32ZM300.06 269.05C299.7 269.07 299.36 269.11 299 269.14C299.35 269.11 299.7 269.07 300.06 269.05ZM298.05 269.22C297.71 269.26 297.38 269.33 297.04 269.38C297.38 269.32 297.71 269.26 298.05 269.22ZM296.1 269.53C295.77 269.6 295.45 269.68 295.13 269.76C295.45 269.68 295.77 269.59 296.1 269.53ZM294.22 269.99C293.9 270.08 293.6 270.19 293.29 270.29C293.6 270.19 293.91 270.08 294.22 269.99ZM292.41 270.58C292.1 270.69 291.81 270.83 291.51 270.96C291.81 270.83 292.1 270.7 292.41 270.58ZM305.23 269.25C305.62 269.3 306.02 269.34 306.42 269.4C306.02 269.34 305.63 269.3 305.23 269.25ZM315.59 271.98C315.14 271.8 314.71 271.65 314.27 271.49C314.71 271.65 315.15 271.8 315.59 271.98ZM313.23 271.1C312.79 270.95 312.36 270.83 311.92 270.69C312.35 270.82 312.79 270.95 313.23 271.1ZM310.91 270.38C310.49 270.26 310.07 270.17 309.65 270.06C310.07 270.16 310.48 270.26 310.91 270.38ZM308.64 269.81C308.23 269.72 307.83 269.66 307.42 269.58C307.82 269.65 308.23 269.72 308.64 269.81ZM358.02 387.64C358.29 387.46 358.55 387.25 358.81 387.05C358.55 387.25 358.29 387.46 358.02 387.64ZM359.52 386.51C359.78 386.3 360.02 386.07 360.27 385.85C360.02 386.07 359.77 386.3 359.52 386.51ZM360.94 385.26C361.19 385.02 361.42 384.77 361.65 384.52C361.41 384.77 361.18 385.02 360.94 385.26ZM370.39 360.75C370.43 359.84 370.46 358.92 370.46 357.97C370.46 358.91 370.43 359.84 370.39 360.75ZM362.27 383.88C362.5 383.62 362.72 383.34 362.94 383.07C362.72 383.34 362.5 383.62 362.27 383.88ZM363.51 382.37C363.73 382.08 363.93 381.77 364.14 381.48C363.93 381.78 363.73 382.09 363.51 382.37ZM364.66 380.74C364.87 380.43 365.06 380.09 365.25 379.76C365.06 380.09 364.87 380.42 364.66 380.74ZM365.72 378.99C365.91 378.65 366.08 378.29 366.26 377.95C366.08 378.3 365.91 378.66 365.72 378.99ZM366.68 377.11C366.85 376.75 367 376.37 367.16 376C367 376.37 366.85 376.75 366.68 377.11ZM367.54 375.12C367.69 374.73 367.83 374.33 367.96 373.93C367.82 374.33 367.69 374.73 367.54 375.12ZM368.29 373.01C368.42 372.6 368.54 372.17 368.66 371.74C368.54 372.16 368.42 372.59 368.29 373.01ZM368.94 370.78C369.05 370.35 369.14 369.9 369.25 369.46C369.15 369.9 369.06 370.35 368.94 370.78ZM369.48 368.44C369.57 367.98 369.64 367.51 369.72 367.04C369.64 367.51 369.57 367.98 369.48 368.44ZM369.9 365.99C369.97 365.49 370.03 364.97 370.09 364.46C370.03 364.97 369.98 365.49 369.9 365.99ZM370.21 363.43C370.27 362.86 370.3 362.26 370.34 361.67C370.3 362.26 370.27 362.85 370.21 363.43Z" fill="#6D7679"/>
</g>
<path d="M365.62 366.55C360.36 369.61 355.09 372.67 349.83 375.73C358.4 370.75 363.71 360.16 363.76 345.11L379.55 335.93C379.51 350.98 374.19 361.57 365.62 366.55Z" fill="#1A3997"/>
<path d="M316.02 317.54L331.81 308.37L379.55 335.93L363.76 345.11L316.02 317.54Z" fill="#577EEF"/>
<path d="M316.17 262.68L331.97 253.5L331.81 308.37L316.02 317.54L316.17 262.68Z" fill="#1A3997"/>
<path d="M316.17 262.68L316.01 317.54L363.75 345.1C363.66 375.39 342.22 387.62 315.85 372.39C289.49 357.17 268.18 320.27 268.27 289.97C268.36 259.67 289.8 247.45 316.17 262.67V262.68Z" fill="#7195FF"/>
<path d="M282.2 259.35L297.99 250.17C306.67 245.13 318.69 245.84 331.96 253.5L316.17 262.68C302.9 255.02 290.88 254.31 282.2 259.35V259.35Z" fill="#577EEF"/>
<path d="M326.98 256.53L342.78 247.35C369.14 262.57 390.45 299.47 390.36 329.76L374.57 338.94C374.66 308.66 353.35 271.75 326.99 256.53H326.98Z" fill="#CE4F41"/>
<path d="M326.98 256.53C353.35 271.75 374.65 308.66 374.56 338.94L326.82 311.38L326.97 256.53H326.98Z" fill="#E06A5B"/>
<g opacity="0.7">
<path d="M199.07 230.03L191.16 225.46L191.22 203.07L199.13 207.64L199.07 230.03M173.13 215.06L165.22 210.49L165.29 184.54L173.2 189.11L173.13 215.07M186.1 222.56L178.18 217.99L178.27 186.44L186.19 191.01L186.1 222.56ZM157.54 154.43C154.01 152.39 151.15 154.03 151.13 158.08L150.97 214.97C150.96 219.02 153.81 223.96 157.33 225.99L206.83 254.57C210.36 256.61 213.22 254.97 213.24 250.92L213.4 194.03C213.41 189.98 210.56 185.04 207.03 183.01L157.53 154.43" fill="white"/>
<path d="M191.23 203.07L199.13 207.64L199.07 230.03L191.16 225.47L191.23 203.07Z" fill="#1A3997"/>
<path d="M178.28 186.43L186.2 191L186.11 222.55L178.19 217.98L178.28 186.43Z" fill="#CE4F41"/>
<path d="M165.3 184.54L173.21 189.1L173.13 215.06L165.22 210.49L165.3 184.54Z" fill="#1A3997"/>
</g>
<path d="M199.04 423.55L193 420.06L97.55 475.53L93.38 477.95L13.9 432.07L109.35 376.6L113.52 374.18L107.46 370.68L0 433.13L91.58 486.01L199.04 423.55Z" fill="#F1CC6E"/>
<path d="M109.35 376.6L13.9 432.07L93.38 477.95L97.55 475.53L18.07 429.64L109.35 376.6Z" fill="#E2B65B"/>
<path d="M86.18 405.23L88.84 403.69L142.12 434.45L139.46 435.99L86.18 405.23ZM94.15 400.6L96.81 399.06L150.09 429.82L147.43 431.36L94.15 400.6ZM102.12 395.97L104.78 394.43L158.06 425.19L155.4 426.73L102.12 395.97ZM110.09 391.34L112.75 389.8L166.03 420.56L163.37 422.1L110.09 391.34ZM192.99 420.07L173.56 408.85L169.29 411.33L128.66 387.87L132.93 385.39L113.51 374.18L109.34 376.6L18.07 429.64L97.55 475.53L192.99 420.06" fill="white"/>
<path d="M154.78 396.23C152.9 395.15 152.89 393.39 154.76 392.3C156.63 391.22 159.67 391.21 161.54 392.3C163.42 393.38 163.43 395.15 161.56 396.23C159.69 397.32 156.65 397.31 154.77 396.23M167.27 388.96C162.49 386.2 154.75 386.2 149.99 388.96L138.34 382.24L132.92 385.39L128.65 387.87L169.28 411.33L173.55 408.85L178.97 405.7L167.32 398.98C172.08 396.21 172.05 391.74 167.26 388.97" fill="#1A3997"/>
<path d="M166.03 420.56L112.75 389.79L110.09 391.34L163.37 422.1L166.03 420.56Z" fill="#DEDEDE"/>
<path d="M158.06 425.19L104.78 394.43L102.13 395.97L155.4 426.73L158.06 425.19Z" fill="#DEDEDE"/>
<path d="M150.09 429.82L96.81 399.06L94.15 400.6L147.43 431.36L150.09 429.82Z" fill="#DEDEDE"/>
<path d="M142.12 434.45L88.84 403.69L86.18 405.23L139.46 436L142.12 434.45Z" fill="#DEDEDE"/>
<path d="M301.34 275.46L293.03 270.67V273.11L301.33 277.9L301.34 275.46Z" fill="#1A3997"/>
<path d="M301.29 291.38L292.99 286.59L292.98 289.03L301.29 293.83V291.38Z" fill="#1A3997"/>
<path d="M301.25 307.3L292.94 302.5V304.94L301.24 309.74L301.25 307.3Z" fill="#1A3997"/>
<path d="M352.48 352.81L292.9 318.41L292.89 320.86L352.47 355.26L352.48 352.81Z" fill="#1A3997"/>
<path d="M327.48 354.32L292.85 334.33V336.78L327.47 356.77L327.48 354.32Z" fill="#1A3997"/>
<path d="M520.1 418.04L470.45 389.38C469.04 388.56 467.76 388.49 466.83 389.03C466.38 389.29 465.94 389.55 465.49 389.81C464.86 390.17 464.24 390.54 463.61 390.9C463.16 391.16 462.72 391.42 462.27 391.68C462.11 391.77 461.89 391.9 461.73 391.99C461.65 392.03 461.54 392.1 461.46 392.14H461.47C460.55 392.66 459.98 393.79 459.97 395.39L459.73 479.94C459.73 483.17 462 487.1 464.8 488.72L514.45 517.39C516.07 518.32 517.5 518.26 518.43 517.45C518.31 517.55 518.2 517.67 518.07 517.75C519.86 516.71 521.65 515.67 523.44 514.63C524.35 514.1 524.92 512.97 524.93 511.37L525.17 426.82C525.17 423.6 522.91 419.67 520.1 418.05V418.04ZM462.23 391.85C462.09 391.88 461.97 391.94 461.83 391.99C461.96 391.94 462.08 391.87 462.23 391.85ZM462.69 391.83C462.83 391.83 462.95 391.8 463.1 391.81C462.96 391.8 462.83 391.83 462.69 391.83ZM463.71 391.94C463.83 391.97 463.93 391.97 464.05 392.02C463.93 391.98 463.82 391.97 463.71 391.94ZM518.69 517.24C518.81 517.11 518.9 516.93 518.99 516.77C518.89 516.93 518.8 517.1 518.69 517.24ZM519.46 515.6C519.53 515.26 519.56 514.89 519.56 514.48C519.56 514.88 519.52 515.25 519.46 515.6ZM519.16 516.52C519.26 516.32 519.32 516.08 519.38 515.84C519.32 516.08 519.26 516.32 519.16 516.52Z" fill="#7195FF"/>
<path d="M514.73 421.16C517.54 422.78 519.81 426.71 519.8 429.93L519.56 514.48C519.56 517.71 517.27 519.01 514.46 517.39L464.81 488.72C462.01 487.1 459.73 483.17 459.74 479.94L459.98 395.39C459.98 392.17 462.28 390.88 465.08 392.5L514.73 421.17V421.16Z" fill="#577EEF"/>
<path d="M489.17 386.27C486.39 384.67 484.13 385.96 484.12 389.16L484.09 412.07C484.09 415.27 486.33 419.16 489.11 420.77C491.9 422.38 494.16 421.09 494.17 417.9L494.2 394.99C494.2 391.78 491.96 387.89 489.17 386.28" fill="white"/>
<path d="M499.46 437.89L476.78 424.79L476.7 453.37L499.38 466.46L499.46 437.89Z" fill="white"/>
<path d="M488.4 478.16C487.65 477.72 487.03 478.07 487.03 478.93C487.03 479.8 487.64 480.85 488.39 481.29L499.29 487.58C500.04 488.02 500.65 487.66 500.65 486.8C500.65 485.94 500.05 484.89 499.29 484.45L488.39 478.16M476.83 464.03C476.08 463.6 475.47 463.95 475.46 464.81C475.46 465.68 476.07 466.73 476.82 467.17L499.31 480.15C500.06 480.59 500.67 480.23 500.67 479.37C500.67 478.51 500.07 477.46 499.31 477.02L476.83 464.04" fill="#1A3997"/>
<path d="M285.17 408.18C287.06 409.27 288.58 411.91 288.58 414.08C288.58 416.26 287.03 417.12 285.15 416.04C283.26 414.95 281.73 412.31 281.73 410.13C281.73 407.95 283.27 407.09 285.17 408.18" fill="#1A3997"/>
<path d="M266.7 397.52C268.58 398.61 270.11 401.24 270.11 403.42C270.11 405.6 268.57 406.46 266.68 405.38C264.79 404.28 263.26 401.65 263.26 399.47C263.26 397.29 264.8 396.43 266.7 397.52" fill="#1A3997"/>
<path d="M248.21 386.84C250.11 387.94 251.63 390.57 251.63 392.75C251.63 394.92 250.09 395.79 248.19 394.7C246.3 393.61 244.78 390.97 244.78 388.8C244.78 386.62 246.33 385.76 248.21 386.84" fill="#1A3997"/>
<path d="M229.73 376.17C231.62 377.26 233.15 379.9 233.15 382.08C233.15 384.25 231.61 385.12 229.71 384.03C227.82 382.94 226.29 380.3 226.3 378.13C226.3 375.96 227.84 375.09 229.73 376.18" fill="#1A3997"/>
<path d="M396.85 280.86C395.01 279.8 393.52 280.65 393.51 282.76C393.51 284.87 394.99 287.44 396.82 288.5C398.53 289.49 399.94 288.82 400.13 287.02L396.83 285.11V284.24L400.14 286.15C399.96 284.14 398.55 281.85 396.85 280.86" fill="#1A3997"/>
<path d="M521.78 356.38L400.14 286.15L396.84 284.24V285.11L400.14 287.02L521.78 357.25V356.38Z" fill="#1A3997"/>
<path d="M140.98 237.57C142.81 238.63 144.3 241.2 144.3 243.31C144.3 245.43 142.8 246.27 140.96 245.21C139.12 244.15 137.63 241.58 137.64 239.46C137.64 237.34 139.14 236.5 140.99 237.56" fill="#1A3997"/>
</g>
<defs>
<clipPath id="clip0_1_2">
<rect width="569.18" height="610.68" fill="white"/>
</clipPath>
</defs>
</svg>
