<svg width="22" height="22" viewBox="0 0 22 22" fill="none" xmlns="http://www.w3.org/2000/svg">
<mask id="mask0_415_34" style="mask-type:alpha" maskUnits="userSpaceOnUse" x="0" y="0" width="22" height="22">
<path d="M0 11C0 5.81455 0 3.22183 1.61091 1.61091C3.22183 0 5.81455 0 11 0C16.1855 0 18.7782 0 20.389 1.61091C22 3.22183 22 5.81455 22 11C22 16.1855 22 18.7782 20.389 20.389C18.7782 22 16.1855 22 11 22C5.81455 22 3.22183 22 1.61091 20.389C0 18.7782 0 16.1855 0 11Z" fill="#001C34"/>
</mask>
<g mask="url(#mask0_415_34)">
<path d="M19.9375 0H2.0625C0.923413 0 0 0.923413 0 2.0625V19.9375C0 21.0766 0.923413 22 2.0625 22H19.9375C21.0766 22 22 21.0766 22 19.9375V2.0625C22 0.923413 21.0766 0 19.9375 0Z" fill="#002C52"/>
<path d="M6.94044 7.46433L-7.98814 19.6429V33.3929H23.244V5.69648L14.2083 14.7322L6.94044 7.46433Z" fill="#268DFF"/>
<path fill-rule="evenodd" clip-rule="evenodd" d="M24.4128 4.7242C24.9497 5.26118 24.9497 6.13178 24.4128 6.66875L15.3771 15.7045C14.8401 16.2414 13.9695 16.2414 13.4325 15.7045L7.0433 9.31523L-6.92246 20.7084C-7.51087 21.1884 -8.37704 21.1005 -8.85707 20.5121C-9.3371 19.9236 -9.24921 19.0575 -8.6608 18.5775L6.26778 6.3989C6.81457 5.95284 7.61025 5.99309 8.10922 6.49206L14.4048 12.7876L22.4682 4.7242C23.0053 4.18723 23.8758 4.18723 24.4128 4.7242Z" fill="white"/>
</g>
</svg>
